<svg width="25" height="19" viewBox="0 0 25 19" fill="none" xmlns="http://www.w3.org/2000/svg">
<path d="M12.5 2C4.21792 2 0 9.5 0 9.5C0 9.5 4.21792 17 12.5 17C20.7829 17 25 9.5 25 9.5C25 9.5 20.7829 2 12.5 2ZM12.5 15.749C5.59833 15.749 2.08333 9.5 2.08333 9.5C2.08333 9.5 5.59833 3.2495 12.5 3.2495C19.4025 3.2495 22.9167 9.5 22.9167 9.5C22.9167 9.5 19.4025 15.749 12.5 15.749Z" fill="#FF7E1F"/>
<path d="M12.4584 14.9375C9.1271 14.9375 6.41669 12.4981 6.41669 9.5C6.41669 6.50187 9.1271 4.0625 12.4584 4.0625C15.7896 4.0625 18.5 6.50187 18.5 9.5C18.5 12.4981 15.79 14.9375 12.4584 14.9375ZM12.4584 5.1875C9.81627 5.1875 7.66669 7.12212 7.66669 9.5C7.66669 11.8779 9.81627 13.8125 12.4584 13.8125C15.1004 13.8125 17.25 11.8779 17.25 9.5C17.25 7.12212 15.1004 5.1875 12.4584 5.1875Z" fill="#FF7E1F"/>
<path d="M15.5825 9.49771C15.5825 11.0532 14.1829 12.314 12.4591 12.314C12.0483 12.3139 11.6416 12.241 11.2621 12.0994C10.8826 11.9579 10.5378 11.7504 10.2475 11.4889C9.95712 11.2273 9.72686 10.9169 9.56986 10.5752C9.41285 10.2336 9.33219 9.86743 9.33246 9.49771C9.33246 7.94484 10.7316 6.68896 12.4591 6.68896C14.1829 6.68896 15.5825 7.94521 15.5825 9.49771Z" fill="#FF7E1F"/>
<path d="M4 18L21 1" stroke="#FF7E1F" stroke-linecap="square"/>
</svg>
