<svg width="25" height="15" viewBox="0 0 25 15" fill="none" xmlns="http://www.w3.org/2000/svg">
<path d="M12.5 0C4.21792 0 0 7.5 0 7.5C0 7.5 4.21792 15 12.5 15C20.7829 15 25 7.5 25 7.5C25 7.5 20.7829 0 12.5 0ZM12.5 13.749C5.59833 13.749 2.08333 7.5 2.08333 7.5C2.08333 7.5 5.59833 1.2495 12.5 1.2495C19.4025 1.2495 22.9167 7.5 22.9167 7.5C22.9167 7.5 19.4025 13.749 12.5 13.749Z" fill="#FF7E1F"/>
<path d="M12.4584 12.9375C9.1271 12.9375 6.41669 10.4981 6.41669 7.5C6.41669 4.50187 9.1271 2.0625 12.4584 2.0625C15.7896 2.0625 18.5 4.50187 18.5 7.5C18.5 10.4981 15.79 12.9375 12.4584 12.9375ZM12.4584 3.1875C9.81627 3.1875 7.66669 5.12212 7.66669 7.5C7.66669 9.87787 9.81627 11.8125 12.4584 11.8125C15.1004 11.8125 17.25 9.87787 17.25 7.5C17.25 5.12212 15.1004 3.1875 12.4584 3.1875Z" fill="#FF7E1F"/>
<path d="M15.5825 7.49771C15.5825 9.05322 14.1829 10.314 12.4591 10.314C12.0483 10.3139 11.6416 10.241 11.2621 10.0994C10.8826 9.95787 10.5378 9.75039 10.2475 9.48886C9.95712 9.22733 9.72686 8.91687 9.56986 8.57522C9.41285 8.23357 9.33219 7.86743 9.33246 7.49771C9.33246 5.94484 10.7316 4.68896 12.4591 4.68896C14.1829 4.68896 15.5825 5.94521 15.5825 7.49771Z" fill="#FF7E1F"/>
</svg>
