<svg width="250" height="120" viewBox="0 0 250 120" fill="none" xmlns="http://www.w3.org/2000/svg">
<g clip-path="url(#clip0_3054_5611)">
<path d="M58.8124 104.42C58.1708 109.28 55.932 113.762 53.4359 118.073C53.3124 118.288 53.1887 118.5 53.0618 118.715H20.7234C20.1488 118.519 19.584 118.304 19.0227 118.073C16.9535 117.236 14.9887 116.179 13.1651 114.921C2.64631 107.636 -1.40336 93.8676 0.427735 81.5322C1.56036 73.8644 5.06216 66.0391 11.8754 61.9113C15.5749 59.7471 19.9874 59.0038 24.2319 59.8297C24.3422 59.849 24.4525 59.8715 24.5628 59.8972C28.1247 60.6681 31.299 62.5827 33.1068 65.6697C36.3547 71.2174 34.42 78.0886 32.8227 84.2627C31.2288 90.4401 30.3669 97.8284 34.9879 102.384C34.31 100.479 34.172 98.4356 34.5879 96.463C35.0039 94.4903 35.9588 92.6598 37.3546 91.1596C38.7504 89.6594 40.5367 88.5437 42.5297 87.9272C44.5227 87.3106 46.6506 87.2156 48.6945 87.6518C49.0286 87.7192 49.3595 87.7963 49.6869 87.8927C50.4717 88.1137 51.2283 88.4186 51.9424 88.8018C57.3923 91.7282 59.5975 98.4677 58.8124 104.42Z" fill="#F2F2F2"/>
<path d="M37.728 118.073C38.4498 118.307 39.1781 118.519 39.9098 118.715H36.7456C36.1574 118.516 35.5738 118.302 34.9946 118.073C34.8677 118.024 34.7373 117.973 34.6104 117.922C29.8355 115.997 25.4383 113.106 22.1135 109.258C20.4843 107.396 19.1552 105.309 18.1707 103.068C17.1 100.536 16.4201 97.8671 16.1525 95.1461C15.5509 89.5631 16.1625 83.8259 17.3119 78.3424C18.4975 72.6587 20.4123 67.1384 23.0124 61.9081C23.3264 61.2817 23.6494 60.6585 23.9813 60.0385C24.0048 59.9883 24.0393 59.9435 24.0826 59.9075C24.1259 59.8714 24.1769 59.8449 24.2319 59.8297C24.289 59.8194 24.3476 59.82 24.4044 59.8316C24.4612 59.8432 24.515 59.8655 24.5628 59.8972C24.6777 59.9605 24.7629 60.0638 24.8009 60.1857C24.8388 60.3077 24.8265 60.439 24.7666 60.5525C22.0868 65.5759 20.0557 70.8954 18.7186 76.3925C17.4088 81.7572 16.6637 87.3691 16.921 92.8815C17.1614 98.0341 18.5616 103.1 21.7393 107.314C24.6987 111.144 28.5921 114.215 33.0767 116.258C34.5839 116.96 36.1377 117.567 37.728 118.073Z" fill="white"/>
<path d="M50.4822 118.715H49.256C49.0822 118.503 48.9151 118.288 48.7513 118.073C46.339 114.921 44.6946 111.288 43.9397 107.443C42.9113 102.058 43.7127 96.4972 46.2254 91.5837C46.9271 90.2061 47.7533 88.8904 48.6945 87.6518C49.0287 87.7192 49.3596 87.7963 49.687 87.8927C47.208 91.0491 45.5409 94.7245 44.8219 98.6187C44.2231 102.025 44.3691 105.514 45.2504 108.864C46.1317 112.213 47.7292 115.349 49.9409 118.073C50.1181 118.291 50.2985 118.506 50.4822 118.715Z" fill="white"/>
<path d="M113.171 59.8325C113.301 59.3438 113.319 58.8336 113.222 58.3378C113.125 57.842 112.916 57.3725 112.611 56.9627C112.305 56.5528 111.909 56.2123 111.451 55.9654C110.994 55.7184 110.485 55.5709 109.962 55.5332L89.5407 30.9878L84.4878 35.5155L106.061 58.9621C106.053 59.8114 106.37 60.6339 106.951 61.2737C107.532 61.9135 108.337 62.3262 109.214 62.4335C110.09 62.5408 110.977 62.3352 111.706 61.8559C112.436 61.3765 112.957 60.6566 113.171 59.8325Z" fill="#FFB8B8"/>
<path d="M93.4582 34.8869L87.0044 39.6385C86.8208 39.7737 86.609 39.8692 86.3835 39.9187C86.158 39.9681 85.9241 39.9702 85.6976 39.9248C85.4712 39.8795 85.2576 39.7878 85.0714 39.6559C84.8851 39.524 84.7307 39.3551 84.6184 39.1607L80.687 32.3476C79.9729 31.4405 79.6621 30.2981 79.8228 29.171C79.9834 28.0439 80.6024 27.024 81.544 26.335C82.4856 25.6459 83.6729 25.344 84.8458 25.4952C86.0186 25.6465 87.0812 26.2388 87.8005 27.1421L93.6003 32.5479C93.7663 32.7027 93.8957 32.8901 93.9796 33.0973C94.0634 33.3045 94.0999 33.5267 94.0864 33.7487C94.0729 33.9707 94.0098 34.1872 93.9014 34.3837C93.793 34.5801 93.6419 34.7517 93.4582 34.8869H93.4582Z" fill="#CCCCCC"/>
<path d="M82.6198 20.0691C87.1524 20.0691 90.8267 16.5367 90.8267 12.1793C90.8267 7.82186 87.1524 4.28946 82.6198 4.28946C78.0873 4.28946 74.413 7.82186 74.413 12.1793C74.413 16.5367 78.0873 20.0691 82.6198 20.0691Z" fill="#FFB8B8"/>
<path d="M100.138 114.522H104.235L103.845 107.151L97.7987 107.151L100.138 114.522Z" fill="#FFB8B8"/>
<path d="M99.0934 113.236L107.161 113.236H107.161C107.836 113.236 108.505 113.363 109.129 113.612C109.752 113.86 110.319 114.224 110.797 114.683C111.274 115.142 111.653 115.687 111.911 116.287C112.169 116.886 112.302 117.529 112.302 118.178V118.339L99.0936 118.339L99.0934 113.236Z" fill="#2F2E41"/>
<path d="M56.4617 108.946L59.9468 111.015L63.6447 104.547L59.4272 102.011L56.4617 108.946Z" fill="#FFB8B8"/>
<path d="M56.2757 107.324L63.1393 111.4L63.1395 111.4C63.7139 111.741 64.2128 112.188 64.6077 112.714C65.0026 113.241 65.2858 113.837 65.441 114.469C65.5963 115.1 65.6206 115.755 65.5126 116.396C65.4045 117.037 65.1663 117.651 64.8115 118.203L64.7236 118.339L53.486 111.666L56.2757 107.324Z" fill="#2F2E41"/>
<path d="M99.8422 112.361C99.5376 112.36 99.2403 112.271 98.9898 112.105C98.7392 111.938 98.5473 111.702 98.4395 111.429L83.6216 77.3694C83.5897 77.2862 83.5346 77.2131 83.4623 77.1581C83.3899 77.1031 83.3032 77.0683 83.2117 77.0576C83.1201 77.0469 83.0273 77.0607 82.9434 77.0974C82.8594 77.1342 82.7877 77.1924 82.736 77.2659L62.379 108.095C62.1799 108.382 61.8802 108.591 61.5344 108.684C61.1886 108.776 60.8198 108.746 60.495 108.599L57.7095 107.35C57.3527 107.188 57.076 106.898 56.9384 106.543C56.8009 106.187 56.8134 105.794 56.9734 105.448L73.6513 69.7078C73.2872 68.8561 69.7351 60.1106 75.1927 55.79L75.2308 55.7671L90.0298 49.4208L90.4029 60.3346L105.153 109.536C105.209 109.722 105.225 109.915 105.202 110.107C105.178 110.298 105.115 110.483 105.016 110.651C104.917 110.818 104.784 110.965 104.626 111.083C104.467 111.2 104.285 111.286 104.091 111.335L100.227 112.312C100.102 112.344 99.9722 112.361 99.8422 112.361Z" fill="#2F2E41"/>
<path d="M90.2537 33.4563C89.6901 31.2821 88.8913 29.0905 87.8209 28.0787C87.4273 27.7098 87.0574 27.3182 86.7133 26.9061C85.9933 26.0341 85.0874 25.3205 84.0565 24.8132C84.4338 24.6114 84.6548 24.3708 84.6548 24.1117C84.6548 23.4021 83.0092 22.8268 80.9793 22.8268C78.9493 22.8268 77.3037 23.4021 77.3037 24.1117C77.3087 24.1942 77.3305 24.2748 77.368 24.3491C77.4055 24.4234 77.4579 24.4898 77.5222 24.5446C76.1966 25.0641 75.0448 25.9233 74.1921 27.0287C73.3394 28.1341 72.8186 29.4432 72.6865 30.8135C72.2118 35.7013 72.0732 41.9492 73.7369 45.9012C75.1323 49.1693 75.2433 52.8138 74.0491 56.1546C73.9681 56.3873 73.9582 56.6374 74.0206 56.8753C74.0829 57.1132 74.2149 57.3289 74.4009 57.4969C74.5868 57.6649 74.819 57.7781 75.0699 57.8231C75.3207 57.8681 75.5797 57.8431 75.8162 57.7509L90.5007 52.0621C90.7479 51.9663 90.9597 51.8017 91.1088 51.5893C91.258 51.3769 91.3377 51.1265 91.3377 50.8703V42.23C91.3494 39.2739 90.9854 36.3275 90.2537 33.4563Z" fill="#CCCCCC"/>
<path d="M62.1573 69.0428C62.6685 68.9287 63.1474 68.7082 63.5603 68.3969C63.9733 68.0856 64.3102 67.691 64.5474 67.241C64.7845 66.7909 64.9162 66.2964 64.933 65.7921C64.9499 65.2879 64.8515 64.7862 64.6448 64.3225L76.1342 35.1943L70.3078 33.7481L59.6807 62.5764C58.8933 62.9617 58.2804 63.6114 57.958 64.4022C57.6356 65.193 57.6261 66.0701 57.9314 66.8671C58.2367 67.6642 58.8355 68.3259 59.6143 68.7269C60.3932 69.1279 61.298 69.2403 62.1573 69.0428V69.0428Z" fill="#FFB8B8"/>
<path d="M76.0863 40.7213L68.724 37.4082C68.5145 37.314 68.3287 37.1774 68.179 37.0078C68.0294 36.8383 67.9196 36.6397 67.857 36.4256C67.7944 36.2116 67.7805 35.9871 67.8163 35.7674C67.852 35.5477 67.9367 35.338 68.0643 35.1526L72.5387 28.6564C73.0469 27.6295 73.9578 26.8382 75.0718 26.4557C76.1858 26.0733 77.412 26.1309 78.4819 26.6161C79.5517 27.1012 80.378 27.9742 80.7795 29.0439C81.1811 30.1135 81.1252 31.2926 80.6242 32.3228L78.3106 39.7635C78.2443 39.9765 78.131 40.1733 77.9784 40.3404C77.8259 40.5076 77.6377 40.6411 77.4266 40.732C77.2155 40.8229 76.9865 40.869 76.7552 40.8672C76.5239 40.8653 76.2958 40.8156 76.0863 40.7213Z" fill="#CCCCCC"/>
<path d="M90.1581 10.2374C90.5283 10.2795 90.9032 10.2144 91.2347 10.0503C91.8401 9.66941 91.7804 8.80367 91.5756 8.13658C91.0652 6.53749 90.1439 5.08776 88.897 3.92121C87.65 2.75465 86.1175 1.90884 84.4409 1.46183C83.2725 1.16331 81.7942 1.17485 81.1258 2.1433C79.4461 1.06761 77.4211 0.606192 75.4179 0.842733C73.4147 1.07928 71.5661 1.99811 70.2071 3.43262C68.8364 4.87951 68.0508 6.76564 67.6437 8.68312C66.9424 11.9861 63.9391 18.7996 65.6028 21.7671C66.7098 23.7419 71.8046 22.2032 73.9596 23.0634C76.1147 23.9235 78.7341 23.827 80.6484 22.5443C82.5627 21.2615 83.5681 18.7287 82.7475 16.6287C82.4301 15.8166 81.8798 15.1113 81.4458 14.3507C81.0117 13.5902 80.6869 12.711 80.8806 11.8637C81.1823 10.5442 87.6599 10.1879 90.1581 10.2374Z" fill="#2F2E41"/>
<path d="M159.386 118.394C159.386 118.436 159.377 118.478 159.361 118.517C159.344 118.556 159.319 118.591 159.288 118.621C159.257 118.651 159.22 118.675 159.18 118.691C159.139 118.707 159.095 118.715 159.052 118.715H0.334142C0.245522 118.715 0.160531 118.681 0.0978676 118.621C0.0352039 118.561 0 118.479 0 118.394C0 118.309 0.0352039 118.227 0.0978676 118.167C0.160531 118.106 0.245522 118.073 0.334142 118.073H159.052C159.095 118.072 159.139 118.081 159.18 118.097C159.22 118.113 159.257 118.136 159.288 118.166C159.319 118.196 159.344 118.232 159.361 118.271C159.377 118.31 159.386 118.352 159.386 118.394Z" fill="#3F3D56"/>
<path d="M183.394 120C189.853 120 195.089 119.137 195.089 118.073C195.089 117.008 189.853 116.145 183.394 116.145C176.935 116.145 171.699 117.008 171.699 118.073C171.699 119.137 176.935 120 183.394 120Z" fill="#FF7E1F"/>
<path d="M249.666 118.856H204.891C204.802 118.856 204.717 118.823 204.655 118.762C204.592 118.702 204.557 118.62 204.557 118.535C204.557 118.45 204.592 118.368 204.655 118.308C204.717 118.248 204.802 118.214 204.891 118.214H249.666C249.754 118.214 249.839 118.248 249.902 118.308C249.965 118.368 250 118.45 250 118.535C250 118.62 249.965 118.702 249.902 118.762C249.839 118.823 249.754 118.856 249.666 118.856Z" fill="#3F3D56"/>
<path d="M174.701 34.4572C174.702 30.9575 175.95 27.5638 178.238 24.8417C180.526 22.1196 183.715 20.2337 187.274 19.4982C184.954 19.0195 182.551 19.0457 180.242 19.5751C177.934 20.1045 175.778 21.1236 173.932 22.5578C172.086 23.9919 170.597 25.8049 169.574 27.8638C168.551 29.9227 168.02 32.1755 168.02 34.4572C168.02 36.7389 168.551 38.9917 169.574 41.0506C170.597 43.1096 172.086 44.9225 173.932 46.3567C175.778 47.7908 177.934 48.8099 180.242 49.3393C182.551 49.8687 184.954 49.895 187.274 49.4162C183.715 48.6808 180.526 46.7948 178.238 44.0727C175.95 41.3506 174.702 37.9569 174.701 34.4572Z" fill="#FF7E1F"/>
<path d="M157.381 34.4572C157.382 26.1103 160.557 18.0516 166.309 11.7993C172.062 5.54699 179.993 1.53262 188.611 0.512371C183.61 -0.0769431 178.537 0.361089 173.726 1.79749C168.915 3.2339 164.476 5.63593 160.702 8.84473C156.929 12.0535 153.907 15.996 151.837 20.4113C149.767 24.8266 148.695 29.6141 148.693 34.4572C148.693 49.7979 172.161 93.0582 180.974 108.765C181.295 109.337 181.77 109.814 182.349 110.147C182.929 110.48 183.592 110.656 184.267 110.656C184.942 110.656 185.605 110.48 186.184 110.147C186.764 109.814 187.239 109.337 187.559 108.765C187.889 108.177 188.242 107.546 188.611 106.884C179.122 89.8547 157.381 49.2238 157.381 34.4572Z" fill="#FF7E1F"/>
<path d="M184.297 111.04C183.56 111.046 182.836 110.857 182.204 110.493C181.571 110.13 181.055 109.607 180.711 108.98C170.993 91.6623 148.39 49.739 148.39 34.5204C148.39 25.365 152.173 16.5846 158.907 10.1108C165.641 3.63696 174.774 0 184.297 0C193.821 0 202.954 3.63696 209.688 10.1108C216.422 16.5846 220.205 25.365 220.205 34.5204C220.205 49.7404 197.602 91.6627 187.884 108.98C187.54 109.607 187.023 110.13 186.391 110.493C185.758 110.857 185.034 111.046 184.297 111.04ZM184.297 0.642467C174.955 0.652598 165.998 4.22513 159.391 10.5763C152.785 16.9274 149.069 25.5385 149.058 34.5204C149.058 49.5927 171.605 91.4001 181.299 108.675C181.59 109.196 182.023 109.631 182.551 109.934C183.079 110.237 183.682 110.397 184.297 110.397C184.912 110.397 185.516 110.237 186.044 109.934C186.571 109.631 187.004 109.196 187.296 108.675C196.99 91.4007 219.537 49.5941 219.537 34.5204C219.526 25.5385 215.81 16.9274 209.204 10.5763C202.597 4.22513 193.64 0.6526 184.297 0.642467Z" fill="#3F3D56"/>
<path d="M184.297 50.1412C181.084 50.1412 177.942 49.2251 175.27 47.5087C172.598 45.7923 170.515 43.3526 169.286 40.4983C168.056 37.6439 167.734 34.5031 168.361 31.4729C168.988 28.4428 170.535 25.6594 172.808 23.4747C175.08 21.2901 177.975 19.8024 181.127 19.1996C184.279 18.5969 187.546 18.9062 190.515 20.0885C193.484 21.2708 196.022 23.273 197.807 25.8419C199.593 28.4107 200.546 31.4309 200.546 34.5204C200.541 38.6618 198.827 42.6323 195.781 45.5607C192.735 48.4891 188.605 50.1364 184.297 50.1412ZM184.297 19.5419C181.216 19.5419 178.204 20.4203 175.641 22.0661C173.079 23.7119 171.082 26.0512 169.903 28.7882C168.724 31.5251 168.415 34.5367 169.016 37.4423C169.617 40.3478 171.101 43.0167 173.28 45.1115C175.459 47.2063 178.235 48.6329 181.258 49.2109C184.28 49.7888 187.413 49.4922 190.259 48.3586C193.106 47.2249 195.54 45.3051 197.252 42.8419C198.964 40.3788 199.878 37.4828 199.878 34.5204C199.873 30.5493 198.23 26.7421 195.309 23.9341C192.388 21.126 188.428 19.5465 184.297 19.5419V19.5419Z" fill="#3F3D56"/>
</g>
<defs>
<clipPath id="clip0_3054_5611">
<rect width="250" height="120" fill="white"/>
</clipPath>
</defs>
</svg>
