<svg width="123" height="85" viewBox="0 0 123 85" fill="none" xmlns="http://www.w3.org/2000/svg">
<g clip-path="url(#clip0_3087_6684)">
<path d="M34.1101 3H117.11C118.645 3.00265 120.116 3.61351 121.201 4.69877C122.287 5.78404 122.897 7.25521 122.9 8.79V70.27C122.901 71.4293 122.553 72.562 121.9 73.52C121.778 73.8296 121.59 74.1093 121.35 74.34C121.19 74.4931 121.008 74.6212 120.81 74.72C119.773 75.5893 118.463 76.067 117.11 76.07H68.0001C68.3552 74.6149 68.4967 73.1159 68.4201 71.62H115.64L84.8001 39.23L74.6201 47.91C74.2213 48.2418 73.7189 48.4235 73.2001 48.4235C72.6813 48.4235 72.1789 48.2418 71.7801 47.91L61.1001 39.23L51.4101 48.94C50.0756 48.036 48.5777 47.4008 47.0001 47.07L57.6401 36.41L37.9101 20.32C37.8269 19.1561 37.5984 18.0072 37.2301 16.9L36.4401 13.41L73.1501 43.34L115.26 7.46H35.1101L34.1101 3ZM17.4601 31C18.3953 36.1512 19.9848 41.1617 22.1901 45.91C24.7926 51.334 28.3184 56.2641 32.6101 60.48C32.7599 60.6366 32.9425 60.7582 33.1448 60.836C33.347 60.9138 33.564 60.9459 33.7801 60.93C34.4849 60.8427 35.165 60.6148 35.7801 60.26C36.511 59.8562 37.2127 59.4017 37.8801 58.9C41.0201 56.72 44.8801 54.01 48.1701 57.05C48.2501 57.12 48.2901 57.19 48.3701 57.25L58.8401 68.78C58.8766 68.8209 58.91 68.8643 58.9401 68.91C59.5433 69.7292 59.9315 70.6865 60.0695 71.6944C60.2076 72.7024 60.0909 73.7288 59.7301 74.68C58.9123 76.8957 57.5587 78.8746 55.7901 80.44C53.5849 82.4179 50.8002 83.6314 47.8501 83.9C45.085 84.1531 42.298 84.0184 39.5701 83.5C35.4889 82.8059 31.6204 81.188 28.2601 78.77C24.5891 76.0549 21.2761 72.8864 18.4001 69.34L18.1601 69.05C16.6401 67.25 15.0001 65.32 13.4701 63.17C7.41888 54.4953 3.17779 44.6901 1.00012 34.34C-0.719876 25.59 -0.369876 16.85 3.33012 9.62C5.33012 5.62 8.39012 2.42 12.3301 0.930003C15.7701 -0.389997 19.8401 -0.409997 24.4601 1.56C24.7169 1.66704 24.9429 1.83654 25.1175 2.05308C25.2921 2.26963 25.4099 2.52638 25.4601 2.8L29.1901 19.38C29.5364 20.1863 29.6432 21.0752 29.4978 21.9406C29.3524 22.806 28.9609 23.6112 28.3701 24.26C27.1891 25.4616 25.7078 26.3249 24.0801 26.76C23.5201 27 22.8701 27.21 22.1801 27.43C19.9101 28.17 17.3201 29.04 17.4501 31.08L17.4601 31ZM88.1801 36.33L118.44 68.06V10.58L88.1801 36.36V36.33Z" fill="#FF7E1F"/>
</g>
<defs>
<clipPath id="clip0_3087_6684">
<rect width="122.88" height="84.04" fill="white"/>
</clipPath>
</defs>
</svg>
