<svg width="347" height="300" viewBox="0 0 347 300" fill="none" xmlns="http://www.w3.org/2000/svg">
<g clip-path="url(#clip0_3054_6012)">
<path d="M238.521 92.7303C238.509 99.5088 236.483 106.131 232.7 111.761C228.916 117.39 223.545 121.773 217.266 124.356C210.986 126.939 204.08 127.606 197.421 126.271C190.762 124.937 184.649 121.662 179.855 116.861C175.061 112.059 171.801 105.947 170.488 99.2962C169.174 92.6456 169.867 85.7558 172.477 79.498C175.087 73.2402 179.498 67.8954 185.152 64.1395C190.806 60.3836 197.449 58.3853 204.241 58.3973C208.754 58.3936 213.223 59.28 217.392 61.0056C221.561 62.7312 225.346 65.2619 228.532 68.4524C231.717 71.6428 234.24 75.4301 235.954 79.5965C237.668 83.7629 238.541 88.2264 238.521 92.7303Z" fill="#F2F2F2"/>
<path d="M295.674 112.708L300.503 103.507C296.173 98.2888 281.967 91.96 281.967 91.96L262.74 74.4944C262.535 73.7151 262.128 73.0035 261.56 72.431C260.992 71.8586 260.283 71.4456 259.504 71.2335C258.726 71.0215 257.905 71.0179 257.124 71.2232C256.344 71.4285 255.631 71.8354 255.058 72.4029C254.485 72.9704 254.072 73.6785 253.861 74.4559C253.649 75.2334 253.647 76.0527 253.853 76.8314C254.06 77.6102 254.468 78.3209 255.038 78.8919C255.607 79.463 256.317 79.8743 257.096 80.0845L277.868 104.947L295.674 112.708Z" fill="#9E616A"/>
<path d="M293.335 112.074L300.153 114.24C305.111 115.816 310.454 115.697 315.337 113.903C316.814 113.354 318.107 112.404 319.072 111.16C320.036 109.915 320.632 108.427 320.794 106.862C320.998 104.74 320.387 102.619 319.084 100.929C317.781 99.239 315.884 98.1056 313.776 97.7582C307.383 96.7095 299.144 96.1924 296.205 99.683L296.175 99.7183L293.335 112.074Z" fill="#3F3D56"/>
<path d="M244.295 140.242C263.261 140.242 278.636 124.898 278.636 105.97C278.636 87.042 263.261 71.6978 244.295 71.6978C225.33 71.6978 209.955 87.042 209.955 105.97C209.955 124.898 225.33 140.242 244.295 140.242Z" fill="white"/>
<path d="M230.28 92.5646C229.809 95.0919 229.036 97.5537 227.978 99.8975C221.921 112.687 239.172 108.518 245.337 108.518C252.077 108.518 258.527 112.056 257.542 96.3377C257.121 89.6237 252.077 84.1571 245.337 84.1571C239.579 84.1571 231.484 86.7111 230.28 92.5646Z" fill="#2F2E41"/>
<path d="M244.327 108.515C249.804 108.515 254.245 104.084 254.245 98.6172C254.245 93.1506 249.804 88.7191 244.327 88.7191C238.85 88.7191 234.409 93.1506 234.409 98.6172C234.409 104.084 238.85 108.515 244.327 108.515Z" fill="#FFB6B6"/>
<path d="M237.592 88.5274C239.33 87.47 241.32 86.898 243.356 86.8713C245.391 86.8445 247.396 87.3639 249.161 88.3752C250.926 89.3865 252.387 90.8525 253.39 92.62C254.393 94.3875 254.902 96.3915 254.864 98.4225C249.81 99.6888 244.501 100.658 239.112 98.7253L237.839 95.6166L237.089 98.7276C235.447 99.3971 233.802 99.9636 232.157 98.7212C232.089 96.6959 232.556 94.6885 233.51 92.8997C234.464 91.1108 235.871 89.6032 237.592 88.5274Z" fill="#2F2E41"/>
<path d="M270.997 128.759C265.048 135.515 256.675 139.665 247.686 140.314C238.697 140.962 229.813 138.056 222.952 132.224L225.898 124.022C226.563 122.565 227.614 121.316 228.936 120.41C230.259 119.504 231.804 118.974 233.405 118.877L235.279 118.762L239.747 114.916C239.747 114.916 251.786 114.487 251.608 114.282L258.9 118.659L258.894 118.629L261.761 118.804C263.362 118.901 264.907 119.431 266.23 120.337C267.553 121.243 268.603 122.492 269.268 123.949L270.997 128.759Z" fill="#FF7E1F"/>
<path d="M241.283 269.981L240.429 258.136C234.84 255.348 228.653 253.963 222.405 254.103C231.194 260.883 230.49 274.435 236.577 283.709C238.498 286.587 241.043 288.997 244.024 290.76C247.005 292.523 250.345 293.594 253.797 293.893L261.112 298.093C261.948 292.574 261.576 286.939 260.021 281.577C258.465 276.215 255.764 271.253 252.102 267.033C250.024 264.686 247.658 262.61 245.061 260.853C243.462 265.434 241.283 269.981 241.283 269.981Z" fill="#F2F2F2"/>
<path d="M18.8775 60.0394L18.0242 48.1949C12.4346 45.4063 6.24749 44.0216 0 44.161C8.78937 50.9413 8.08536 64.493 14.1725 73.7673C16.0932 76.6454 18.6382 79.0552 21.619 80.8182C24.5998 82.5812 27.9398 83.6521 31.3917 83.9517L38.7066 88.1516C39.5434 82.6321 39.1712 76.9972 37.6158 71.6351C36.0603 66.273 33.3586 61.3111 29.6967 57.0914C27.6189 54.7445 25.2532 52.6681 22.6555 50.9111C21.0566 55.4925 18.8775 60.0394 18.8775 60.0394Z" fill="#F2F2F2"/>
<path d="M273.282 294.089L267.576 294.088L264.862 272.124H273.283L273.282 294.089Z" fill="#9E616A"/>
<path d="M274.737 299.609L256.339 299.608V299.376C256.339 297.48 257.094 295.663 258.437 294.322C259.78 292.982 261.601 292.229 263.5 292.229H263.501L266.861 289.685L273.131 292.229L274.737 292.23L274.737 299.609Z" fill="#2F2E41"/>
<path d="M323.569 294.089L317.864 294.088L315.149 272.124H323.57L323.569 294.089Z" fill="#9E616A"/>
<path d="M325.025 299.609L306.627 299.608V299.376C306.627 297.48 307.381 295.663 308.724 294.322C310.067 292.982 311.889 292.229 313.788 292.229H313.788L317.149 289.685L323.419 292.229L325.025 292.229L325.025 299.609Z" fill="#2F2E41"/>
<path d="M314.891 176.534L319.69 222.034C319.69 222.034 326.079 267.593 324.879 273.88C323.679 280.166 325.179 281.064 325.179 281.064L314.232 280.286C314.232 280.286 314.532 276.394 312.732 274.598C310.932 272.802 311.832 267.414 311.832 267.414L290.596 193.297L277.699 232.212C277.699 232.212 275.599 275.018 275.299 275.617C274.999 276.216 274.099 284.298 274.099 284.298H263.001C263.001 284.298 264.501 279.509 262.401 278.012C260.302 276.515 258.502 277.713 260.302 275.018C262.101 272.324 262.701 269.031 262.101 267.535C261.502 266.038 261.502 260.051 261.502 260.051C261.502 260.051 262.401 179.228 267.5 176.534C272.599 173.84 314.891 176.534 314.891 176.534Z" fill="#2F2E41"/>
<path d="M292.164 84.4068C298.683 84.4068 303.967 79.1326 303.967 72.6266C303.967 66.1205 298.683 60.8463 292.164 60.8463C285.645 60.8463 280.36 66.1205 280.36 72.6266C280.36 79.1326 285.645 84.4068 292.164 84.4068Z" fill="#9E616A"/>
<path d="M318.971 181.493C296.111 186.204 265.818 178.104 265.818 178.104L273.899 143.144L271.026 106.558C270.675 102.084 273.228 97.8899 277.201 96.4037L282.686 94.3534L287.219 87.8757L300.169 88.2998L305.346 95.1004L309.432 97.2635L318.288 101.952L318.327 101.971V101.99L315.548 128.897L313.872 145.121C313.872 145.121 318.963 163.367 317.918 165.787C316.873 168.203 317.782 167.036 318.035 168.327C318.288 169.619 319.064 169.701 319.181 172.245C319.302 174.786 318.971 181.493 318.971 181.493Z" fill="#3F3D56"/>
<path d="M346.605 300H170.027C169.922 300 169.822 299.958 169.748 299.884C169.674 299.81 169.632 299.71 169.632 299.605C169.632 299.501 169.674 299.401 169.748 299.327C169.822 299.253 169.922 299.211 170.027 299.211H346.605C346.71 299.211 346.81 299.252 346.884 299.326C346.958 299.4 347 299.501 347 299.605C347 299.71 346.958 299.81 346.884 299.884C346.81 299.958 346.71 300 346.605 300Z" fill="#CCCCCC"/>
<path d="M291.59 83.8408C293.66 83.8197 295.724 83.6221 297.761 83.2503C299.777 82.7867 304.226 79.3538 305.438 77.3258C306.339 75.819 306.879 73.4883 307.174 71.7986C307.573 69.5623 307.496 67.2675 306.949 65.0627C306.402 62.8579 305.397 60.7923 304 58.9997C303.461 58.2487 302.729 57.657 301.881 57.2872C301.806 57.2601 301.729 57.2364 301.651 57.2164C300.422 56.9272 299.307 56.278 298.45 55.3521C298.284 55.1646 298.104 54.9894 297.913 54.8277C296.951 54.0596 295.822 53.5294 294.616 53.2805C292.668 52.8136 289.881 53.3987 286.333 55.0211C284.551 55.8362 282.573 55.6088 281.048 55.3196C280.963 55.3054 280.875 55.3138 280.794 55.3439C280.712 55.374 280.641 55.4249 280.585 55.4913C279.956 56.1124 279.114 56.4726 278.229 56.4997C277.688 56.5374 277.139 57.301 276.477 58.2953C276.326 58.521 276.151 58.7844 276.024 58.9452L275.999 58.6433L275.701 58.9885C275.233 59.531 274.91 60.1829 274.762 60.8836C274.614 61.5842 274.646 62.3108 274.856 62.9956C275.065 63.6804 275.445 64.3012 275.959 64.8002C276.474 65.2992 277.106 65.6601 277.798 65.8494C278.347 65.9801 278.908 66.0546 279.472 66.0716C279.814 66.0934 280.168 66.116 280.507 66.1659C281.599 66.3597 282.621 66.8326 283.474 67.5385C284.328 68.2443 284.983 69.1589 285.376 70.193C285.469 70.432 285.616 70.6464 285.805 70.8199C285.994 70.9933 286.221 71.121 286.467 71.1932C286.714 71.2653 286.973 71.28 287.227 71.2361C287.48 71.1921 287.719 71.0908 287.927 70.9398C288.272 70.6569 288.681 70.4616 289.118 70.3704C289.555 70.2792 290.008 70.295 290.438 70.4163C290.811 70.6113 291.107 70.9286 291.274 71.315C291.476 71.7451 291.802 72.1054 292.21 72.3498C293.602 73.0212 293.777 76.1496 293.352 78.7723C292.941 81.3003 292.048 83.1444 291.181 83.2568C290.512 83.3432 290.437 83.3927 290.391 83.5122L290.351 83.6192L290.429 83.7163C290.802 83.8406 291.198 83.8831 291.59 83.8408Z" fill="#2F2E41"/>
<path d="M244.295 140.672C237.418 140.672 230.696 138.636 224.978 134.823C219.26 131.01 214.803 125.591 212.171 119.25C209.54 112.909 208.851 105.932 210.193 99.2002C211.534 92.4687 214.846 86.2855 219.709 81.4324C224.572 76.5793 230.767 73.2743 237.512 71.9353C244.257 70.5963 251.248 71.2835 257.602 73.91C263.955 76.5365 269.386 80.9843 273.206 86.6909C277.027 92.3976 279.066 99.1068 279.066 105.97C279.056 115.17 275.389 123.991 268.87 130.496C262.352 137.002 253.514 140.661 244.295 140.672ZM244.295 72.1272C237.589 72.1272 231.032 74.112 225.456 77.8307C219.879 81.5494 215.533 86.835 212.966 93.019C210.4 99.203 209.728 106.008 211.037 112.573C212.345 119.137 215.575 125.168 220.317 129.901C225.06 134.634 231.102 137.857 237.68 139.163C244.258 140.469 251.076 139.798 257.272 137.237C263.469 134.675 268.765 130.338 272.491 124.772C276.217 119.207 278.206 112.664 278.206 105.97C278.196 96.9975 274.62 88.3954 268.262 82.0508C261.905 75.7062 253.286 72.1373 244.295 72.1272Z" fill="#3F3D56"/>
<path d="M124.274 68.9739C143.24 68.9739 158.615 53.6297 158.615 34.7016C158.615 15.7735 143.24 0.42926 124.274 0.42926C105.308 0.42926 89.9336 15.7735 89.9336 34.7016C89.9336 53.6297 105.308 68.9739 124.274 68.9739Z" fill="white"/>
<path d="M125.863 38.1976C132.048 38.1976 137.061 33.1941 137.061 27.022C137.061 20.8499 132.048 15.8464 125.863 15.8464C119.679 15.8464 114.666 20.8499 114.666 27.022C114.666 33.1941 119.679 38.1976 125.863 38.1976Z" fill="#FFB8B8"/>
<path d="M135.723 19.6391C135.723 19.6391 138.638 14.0766 132.224 13.5709C132.224 13.5709 126.756 8.62041 121.182 12.6659C121.182 12.6659 118.142 12.6659 116.48 16.0993C116.48 16.0993 114.088 15.1943 113.563 17.6164C113.563 17.6164 111.813 22.6733 113.563 27.2244C115.313 31.7756 115.894 32.2813 115.894 32.2813C115.894 32.2813 114.666 26.6335 121.664 26.1278C128.662 25.6222 135.082 21.2469 135.665 26.8095C136.249 32.372 136.89 29.8592 136.89 29.8592C136.89 29.8592 142.429 21.9147 135.723 19.6391Z" fill="#2F2E41"/>
<path d="M150.1 57.4905C144.15 64.2466 135.777 68.3967 126.789 69.0451C117.8 69.6934 108.916 66.7879 102.055 60.9558L105 52.7533C105.666 51.2964 106.716 50.0479 108.039 49.1415C109.362 48.2351 110.906 47.7051 112.508 47.6083L114.382 47.4934L118.85 43.6475C118.85 43.6475 130.889 43.2185 130.71 43.013L138.003 47.3907L137.997 47.3605L140.864 47.5357C142.465 47.6321 144.01 48.162 145.333 49.0684C146.656 49.9749 147.706 51.2237 148.371 52.6808L150.1 57.4905Z" fill="#FF7E1F"/>
<path d="M124.274 69.4032C117.397 69.4032 110.675 67.368 104.957 63.5549C99.2386 59.7419 94.7819 54.3222 92.1502 47.9813C89.5185 41.6404 88.8299 34.6631 90.1715 27.9316C91.5132 21.2002 94.8248 15.017 99.6876 10.1639C104.55 5.31074 110.746 2.00574 117.491 0.666768C124.236 -0.672202 131.227 0.0150029 137.58 2.64148C143.934 5.26797 149.364 9.71576 153.185 15.4224C157.006 21.1291 159.045 27.8383 159.045 34.7016C159.034 43.9018 155.368 52.7222 148.849 59.2278C142.331 65.7333 133.493 69.3928 124.274 69.4032ZM124.274 0.858641C117.567 0.858639 111.011 2.84349 105.435 6.5622C99.8581 10.2809 95.5117 15.5665 92.9451 21.7504C90.3785 27.9344 89.7069 34.7391 91.0154 41.304C92.3238 47.8689 95.5535 53.8991 100.296 58.6322C105.038 63.3652 111.081 66.5884 117.659 67.8942C124.237 69.2001 131.055 68.5299 137.251 65.9684C143.447 63.4069 148.744 59.0692 152.47 53.5037C156.196 47.9383 158.185 41.3951 158.185 34.7016C158.174 25.729 154.598 17.1268 148.241 10.7823C141.884 4.43767 133.265 0.868819 124.274 0.858641Z" fill="#3F3D56"/>
<path d="M44.1209 123.069C63.0867 123.069 78.4615 107.725 78.4615 88.7969C78.4615 69.8689 63.0867 54.5246 44.1209 54.5246C25.1551 54.5246 9.78027 69.8689 9.78027 88.7969C9.78027 107.725 25.1551 123.069 44.1209 123.069Z" fill="white"/>
<path d="M28.2043 77.6482C29.6243 73.1318 32.8534 68.9895 37.3191 67.4627C41.785 65.9359 48.3244 68.2617 51.6818 71.6011C57.8231 77.7095 59.3219 98.6942 55.1025 105.326C54.2633 105.281 51.3673 105.249 50.5179 105.217L49.3163 101.22V105.177C47.9631 105.136 46.5993 105.107 45.2248 105.091C40.6167 105.034 36.2102 103.196 32.9316 99.9637C29.6531 96.7314 27.758 92.3564 27.6446 87.7584C27.5347 83.3598 27.6448 79.428 28.2043 77.6482Z" fill="#2F2E41"/>
<path d="M43.6115 92.6166C49.0167 92.6166 53.3984 88.2436 53.3984 82.8492C53.3984 77.4549 49.0167 73.0818 43.6115 73.0818C38.2064 73.0818 33.8247 77.4549 33.8247 82.8492C33.8247 88.2436 38.2064 92.6166 43.6115 92.6166Z" fill="#9E616A"/>
<path d="M35.1653 74.2711L46.4339 68.6399C48.7377 69.6759 50.7218 71.3083 52.1805 73.3675C53.6391 75.4268 54.5192 77.8381 54.7294 80.3512L55.0103 83.7089L50.2916 82.5101L49.7746 78.2166L48.9733 82.1752L46.7956 81.6222L46.8163 74.9566L44.6373 81.6174L36.8596 79.8341L35.1653 74.2711Z" fill="#2F2E41"/>
<path d="M69.6038 111.477C63.6544 118.233 55.2816 122.383 46.2927 123.031C37.3038 123.68 28.42 120.774 21.5591 114.942L24.5046 106.74C25.1702 105.283 26.2206 104.034 27.5432 103.128C28.8657 102.222 30.4106 101.691 32.012 101.595L33.8859 101.48L38.354 97.6339C38.354 97.6339 50.3932 97.2049 50.2146 96.9995L57.5072 101.377L57.5011 101.347L60.3679 101.522C61.9694 101.619 63.5144 102.148 64.8371 103.055C66.1597 103.961 67.21 105.21 67.8753 106.667L69.6038 111.477Z" fill="#FF7E1F"/>
<path d="M44.1209 123.499C37.2439 123.499 30.5213 121.463 24.8033 117.65C19.0852 113.837 14.6286 108.418 11.9969 102.077C9.36516 95.7358 8.67659 88.7585 10.0182 82.027C11.3599 75.2955 14.6714 69.1123 19.5342 64.2592C24.397 59.4061 30.5926 56.1011 37.3374 54.7621C44.0823 53.4231 51.0735 54.1104 57.4271 56.7368C63.7806 59.3633 69.211 63.8111 73.0317 69.5178C76.8523 75.2244 78.8916 81.9336 78.8916 88.7969C78.8812 97.9972 75.2145 106.818 68.6959 113.323C62.1774 119.829 53.3394 123.488 44.1209 123.499ZM44.1209 54.954C37.414 54.954 30.8578 56.9388 25.2813 60.6576C19.7047 64.3763 15.3584 69.6618 12.7918 75.8458C10.2252 82.0298 9.55362 88.8345 10.8621 95.3994C12.1705 101.964 15.4001 107.994 20.1426 112.728C24.885 117.461 30.9273 120.684 37.5053 121.99C44.0832 123.295 50.9015 122.625 57.0978 120.064C63.2941 117.502 68.5902 113.165 72.3163 107.599C76.0424 102.034 78.0312 95.4904 78.0312 88.7969C78.021 79.8244 74.4451 71.2222 68.0879 64.8776C61.7306 58.533 53.1113 54.9642 44.1209 54.954V54.954Z" fill="#3F3D56"/>
<path d="M276.012 123.75L270.813 114.752C264.078 115.606 251.113 124.188 251.113 124.188L226.036 131.036C225.267 130.791 224.447 130.752 223.658 130.924C222.87 131.096 222.141 131.473 221.544 132.015C220.948 132.558 220.505 133.248 220.26 134.016C220.016 134.784 219.979 135.602 220.152 136.389C220.325 137.176 220.703 137.903 221.247 138.498C221.792 139.092 222.484 139.534 223.253 139.777C224.023 140.02 224.843 140.056 225.631 139.882C226.419 139.708 227.148 139.33 227.743 138.786L259.907 134.599L276.012 123.75Z" fill="#9E616A"/>
<path d="M274.221 125.381L285.861 115.651L287.554 107.82C287.881 106.281 287.77 104.681 287.234 103.202C286.698 101.723 285.758 100.423 284.52 99.4493C282.834 98.1403 280.712 97.5193 278.585 97.7118C276.457 97.9043 274.482 98.8959 273.058 100.486C268.746 105.313 263.896 111.979 265.275 116.325L265.289 116.369L274.221 125.381Z" fill="#3F3D56"/>
<path d="M95.8218 159.182H52.0871C50.915 159.181 49.7914 158.715 48.9626 157.888C48.1338 157.061 47.6676 155.94 47.6663 154.77V127.887C47.6676 126.717 48.1338 125.596 48.9626 124.769C49.7914 123.942 50.915 123.476 52.0871 123.475H95.8218C96.9939 123.476 98.1176 123.942 98.9464 124.769C99.7752 125.596 100.241 126.717 100.243 127.887V154.77C100.241 155.94 99.7752 157.061 98.9464 157.888C98.1176 158.715 96.9939 159.181 95.8218 159.182Z" fill="#E6E6E6"/>
<path d="M78.4454 155.719H55.1615C54.0638 155.718 53.0114 155.282 52.2351 154.508C51.4589 153.733 51.0223 152.683 51.021 151.587V131.07C51.0223 129.974 51.4589 128.924 52.2351 128.149C53.0114 127.375 54.0638 126.939 55.1615 126.938H92.7478C93.8455 126.939 94.8979 127.375 95.6741 128.149C96.4503 128.924 96.8869 129.974 96.8881 131.07V137.314C96.8825 142.193 94.9377 146.872 91.4802 150.322C88.0227 153.773 83.335 155.714 78.4454 155.719Z" fill="white"/>
<path d="M88.9982 138.173H58.9109C58.6507 138.173 58.4011 138.069 58.2171 137.886C58.0331 137.702 57.9297 137.453 57.9297 137.193C57.9297 136.934 58.0331 136.684 58.2171 136.501C58.4011 136.317 58.6507 136.214 58.9109 136.214H88.9982C89.2585 136.214 89.5081 136.317 89.6921 136.501C89.8761 136.684 89.9795 136.934 89.9795 137.193C89.9795 137.453 89.8761 137.702 89.6921 137.886C89.5081 138.069 89.2585 138.173 88.9982 138.173Z" fill="#FF7E1F"/>
<path d="M63.6174 142.042H58.911C58.6507 142.042 58.4011 141.939 58.2171 141.755C58.0331 141.572 57.9297 141.323 57.9297 141.063C57.9297 140.803 58.0331 140.554 58.2171 140.37C58.4011 140.187 58.6507 140.084 58.911 140.084H63.6174C63.8777 140.084 64.1273 140.187 64.3113 140.37C64.4953 140.554 64.5987 140.803 64.5987 141.063C64.5987 141.323 64.4953 141.572 64.3113 141.755C64.1273 141.939 63.8777 142.042 63.6174 142.042Z" fill="#FF7E1F"/>
<path d="M71.953 145.912H58.9109C58.651 145.911 58.4019 145.808 58.2183 145.624C58.0347 145.441 57.9316 145.192 57.9316 144.933C57.9316 144.673 58.0347 144.424 58.2183 144.241C58.4019 144.057 58.651 143.954 58.9109 143.953H71.953C72.2129 143.954 72.462 144.057 72.6456 144.241C72.8291 144.424 72.9322 144.673 72.9322 144.933C72.9322 145.192 72.8291 145.441 72.6456 145.624C72.462 145.808 72.2129 145.911 71.953 145.912Z" fill="#FF7E1F"/>
<path d="M46.14 132.173C51.2496 132.173 55.3916 128.039 55.3916 122.94C55.3916 117.84 51.2496 113.706 46.14 113.706C41.0305 113.706 36.8884 117.84 36.8884 122.94C36.8884 128.039 41.0305 132.173 46.14 132.173Z" fill="#3F3D56"/>
<path d="M209.39 37.2528H165.656C164.484 37.2515 163.36 36.7862 162.531 35.959C161.702 35.1319 161.236 34.0104 161.235 32.8407V5.95777C161.236 4.78801 161.702 3.66655 162.531 2.8394C163.36 2.01226 164.484 1.54698 165.656 1.54565H209.39C210.562 1.54698 211.686 2.01225 212.515 2.83939C213.344 3.66654 213.81 4.78801 213.811 5.95777V32.8407C213.81 34.0104 213.344 35.1319 212.515 35.959C211.686 36.7862 210.563 37.2515 209.39 37.2528Z" fill="#E6E6E6"/>
<path d="M192.014 33.7901H168.73C167.632 33.7888 166.58 33.3531 165.804 32.5785C165.028 31.8038 164.591 30.7535 164.59 29.658V9.14038C164.591 8.04483 165.028 6.99453 165.804 6.21988C166.58 5.44523 167.632 5.00951 168.73 5.0083H206.316C207.414 5.00952 208.466 5.44525 209.243 6.2199C210.019 6.99455 210.455 8.04486 210.457 9.14038V15.3843C210.451 20.2641 208.506 24.9425 205.049 28.3931C201.591 31.8436 196.904 33.7846 192.014 33.7901Z" fill="white"/>
<path d="M202.567 16.2433H172.48C172.219 16.2433 171.97 16.1401 171.786 15.9564C171.602 15.7728 171.498 15.5237 171.498 15.264C171.498 15.0043 171.602 14.7552 171.786 14.5715C171.97 14.3879 172.219 14.2847 172.48 14.2847H202.567C202.827 14.2847 203.077 14.3879 203.261 14.5715C203.445 14.7552 203.548 15.0043 203.548 15.264C203.548 15.5237 203.445 15.7728 203.261 15.9564C203.077 16.1401 202.827 16.2433 202.567 16.2433Z" fill="#FF7E1F"/>
<path d="M177.186 20.1129H172.479C172.219 20.1129 171.969 20.0098 171.785 19.8261C171.601 19.6424 171.498 19.3933 171.498 19.1336C171.498 18.8739 171.601 18.6248 171.785 18.4411C171.969 18.2574 172.219 18.1543 172.479 18.1543H177.186C177.446 18.1543 177.696 18.2574 177.88 18.4411C178.064 18.6248 178.167 18.8739 178.167 19.1336C178.167 19.3933 178.064 19.6424 177.88 19.8261C177.696 20.0098 177.446 20.1129 177.186 20.1129Z" fill="#FF7E1F"/>
<path d="M185.522 23.9826H172.479C172.22 23.9821 171.97 23.8787 171.787 23.6951C171.603 23.5115 171.5 23.2627 171.5 23.0033C171.5 22.7439 171.603 22.4951 171.787 22.3115C171.97 22.1279 172.22 22.0245 172.479 22.024H185.522C185.782 22.024 186.031 22.1271 186.215 22.3108C186.4 22.4945 186.503 22.7436 186.503 23.0033C186.503 23.263 186.4 23.5121 186.215 23.6958C186.031 23.8795 185.782 23.9826 185.522 23.9826Z" fill="#FF7E1F"/>
<path d="M159.709 42.4431C164.818 42.4431 168.96 38.3092 168.96 33.2099C168.96 28.1105 164.818 23.9767 159.709 23.9767C154.599 23.9767 150.457 28.1105 150.457 33.2099C150.457 38.3092 154.599 42.4431 159.709 42.4431Z" fill="#3F3D56"/>
</g>
<defs>
<clipPath id="clip0_3054_6012">
<rect width="347" height="300" fill="white"/>
</clipPath>
</defs>
</svg>
